<?xml version="1.0" encoding="utf-8"?>
<!-- Generator: Adobe Illustrator 15.1.0, SVG Export Plug-In . SVG Version: 6.00 Build 0)  -->
<!DOCTYPE svg PUBLIC "-//W3C//DTD SVG 1.1//EN" "http://www.w3.org/Graphics/SVG/1.1/DTD/svg11.dtd">
<svg version="1.1" id="レイヤー_1" xmlns="http://www.w3.org/2000/svg" xmlns:xlink="http://www.w3.org/1999/xlink" x="0px"
	 y="0px" width="195px" height="240px" viewBox="0 0 195 240" enable-background="new 0 0 195 240" xml:space="preserve">
<ellipse transform="matrix(1 0.0051 -0.0051 1 0.7551 -0.4941)" fill="#F5F5F7" cx="97.311" cy="147.886" rx="97.365" ry="92.112"/>
<path fill="#F5F5F7" d="M81.053,71.924c0,0-7.348,6.633-6.707,7.279c0.642,0.646,12.908,0.066,12.908,0.066s1.026,8.824,2.317,9.044
	c1.291,0.225,8.199-5.766,8.199-5.766s13.419,4.857,14.824,4.164c1.294-0.639-0.588-10.542-0.588-10.542s11.621-1.877,11.843-3.381
	c0.228-1.504-10.082-5.646-10.082-5.646s-0.595-9.034-1.667-9.47c-1.07-0.434-10.983,2.739-10.983,2.739s-9.427-4.927-11.596-4.575
	c-1.292,0.208-3.908,6.861-3.908,6.861s-13.552,1.006-13.987,2.082C71.187,65.852,81.053,71.924,81.053,71.924z"/>
<path fill="#F5F5F7" d="M108.379,70.332c-0.017,3.336-4.81,6.009-10.699,5.979c-5.895-0.03-10.656-2.752-10.639-6.088
	c0.017-3.336,4.805-6.013,10.7-5.983C103.631,64.271,108.396,66.995,108.379,70.332z"/>
<path fill="#F5F5F7" d="M143.614,147.768c-1.438-0.074-2.671,0.864-2.762,2.104c-0.274,3.836-0.965,5.664-0.968,5.684
	c-0.456,1.172,0.277,2.442,1.631,2.842c1.361,0.397,2.833-0.212,3.302-1.38c0.092-0.229,0.93-2.401,1.244-6.869
	C146.15,148.915,145.053,147.846,143.614,147.768z M169.117,156.463c-1.44-0.024-2.667,0.962-2.753,2.207
	c-0.263,3.851-0.949,5.708-0.955,5.725c-0.45,1.19,0.283,2.443,1.636,2.795c1.36,0.35,2.826-0.316,3.295-1.502
	c0.091-0.233,0.921-2.439,1.22-6.923C171.643,157.52,170.551,156.489,169.117,156.463z M150.771,175.24
	c-1.432-0.042-2.679,0.93-2.785,2.175c-0.315,3.85-1.031,5.701-1.038,5.715c-0.466,1.186,0.248,2.446,1.595,2.815
	c1.354,0.368,2.832-0.28,3.314-1.458c0.1-0.237,0.966-2.43,1.332-6.917C153.283,176.334,152.207,175.284,150.771,175.24z
	 M128.073,188.061c-1.438-0.096-2.695,0.823-2.809,2.062c-0.346,3.831-1.074,5.65-1.074,5.667c-0.48,1.163,0.224,2.449,1.57,2.869
	c1.359,0.417,2.84-0.175,3.33-1.331c0.104-0.231,0.977-2.387,1.375-6.849C130.581,189.241,129.502,188.156,128.073,188.061z
	 M119.145,156.934c-1.438-0.011-2.638,0.988-2.676,2.23c-0.12,3.845-0.73,5.703-0.736,5.721c-0.404,1.189,0.373,2.43,1.745,2.765
	c1.374,0.339,2.821-0.344,3.248-1.53c0.08-0.238,0.831-2.446,0.961-6.924C121.72,157.957,120.583,156.941,119.145,156.934z
	 M106.903,180.061c-1.439-0.029-2.676,0.95-2.77,2.197c-0.276,3.855-0.976,5.708-0.986,5.727c-0.456,1.189,0.273,2.444,1.626,2.801
	c1.356,0.354,2.824-0.308,3.296-1.49c0.099-0.235,0.938-2.44,1.267-6.927C109.426,181.131,108.341,180.092,106.903,180.061z
	 M79.954,186.577c-1.439-0.076-2.677,0.862-2.761,2.102c-0.275,3.837-0.965,5.666-0.974,5.682c-0.449,1.173,0.283,2.446,1.632,2.845
	c1.361,0.399,2.84-0.212,3.309-1.382c0.089-0.227,0.928-2.398,1.236-6.868C82.486,187.722,81.394,186.657,79.954,186.577z
	 M166.984,136.956c0.066-0.239,0.648-2.491,0.454-6.968c-0.055-1.235-1.261-2.168-2.699-2.086c-1.439,0.087-2.558,1.16-2.506,2.406
	c0.164,3.846-0.314,5.734-0.314,5.754c-0.322,1.214,0.548,2.402,1.936,2.638C165.253,138.943,166.646,138.168,166.984,136.956z"/>
<g>
	<path fill="#F5F5F7" d="M83.772,52.854c0,0-17.889,7.514-33.28-9.556C35.111,26.224,36.723,1,36.723,1s25.592,0.695,40.979,17.763
		C93.096,35.833,83.772,52.854,83.772,52.854z"/>
	<path fill="#F5F5F7" d="M83.772,52.854c-0.028,0.003-17.906,7.494-33.28-9.556C35.113,26.242,36.727,1.03,36.736,1.004
		L83.772,52.854z"/>
</g>
</svg>
